<svg xmlns="http://www.w3.org/2000/svg" width="14" height="13" viewBox="0 0 14 13">
    <path fill="gray" d="M13.5 5.76h-1.94V3.72a.28.28 0 0 0-.27-.29h-.55a.28.28 0 0 0-.27.29v2.04H8.52a.28.28 0 0 0-.27.28v.59c0 .15.12.28.27.28h1.95v2.05c0 .15.12.28.27.28h.55c.15 0 .27-.13.27-.28V6.9h1.94c.15 0 .27-.13.27-.28v-.59a.28.28 0 0 0-.27-.28zm-6.53 1.8c-.41-.31-.78-.76-.8-.9 0-.24.03-.36.56-.8a2.73 2.73 0 0 0 1.07-2.1c0-.72-.2-1.35-.56-1.8h.28c.05 0 .1-.02.15-.05l.77-.59c.1-.07.13-.2.1-.31a.27.27 0 0 0-.26-.2H4.86c-.38 0-.76.07-1.13.2-1.25.46-2.12 1.58-2.12 2.72 0 1.63 1.2 2.86 2.8 2.9a1.48 1.48 0 0 0 .14 1.1H4.5c-1.52 0-2.9.79-3.42 1.96-.14.3-.2.6-.2.91 0 .3.06.58.2.85.33.62 1.04 1.1 2 1.35.49.13 1.01.2 1.56.2.5 0 .97-.07 1.4-.2 1.36-.41 2.24-1.46 2.24-2.68 0-1.16-.36-1.86-1.31-2.57zm-4.33 2.66c0-.85 1.03-1.6 2.2-1.6h.02c.26.01.5.05.74.13l.23.16c.54.39.9.64 1 1.05.02.1.03.21.03.31 0 1.05-.75 1.59-2.22 1.59-1.12 0-2-.72-2-1.64zm1.06-8a.87.87 0 0 1 .7-.33h.02c.76.02 1.48.9 1.62 1.97a2 2 0 0 1-.34 1.5.88.88 0 0 1-.7.34c-.75-.02-1.49-.94-1.62-2.01-.08-.6.04-1.13.32-1.47z"/>
</svg>