<svg xmlns="http://www.w3.org/2000/svg" width="10" height="13" viewBox="0 0 10 13"><path fill="gray" d="M5.45 0C2.05 0 .32 2.54.32 4.65.32 5.94.8 7.08 1.8 7.5c.17.07.32 0 .36-.19l.15-.6c.05-.18.03-.25-.1-.4a2.2 2.2 0 0 1-.48-1.47 3.47 3.47 0 0 1 3.54-3.57c1.93 0 2.99 1.22 2.99 2.86 0 2.15-.92 3.96-2.28 3.96-.75 0-1.31-.65-1.13-1.44.21-.94.63-1.96.63-2.64 0-.61-.32-1.12-.97-1.12-.77 0-1.38.82-1.38 1.93 0 .7.23 1.18.23 1.18l-.93 4.06c-.27 1.2-.04 2.68-.02 2.83.01.09.12.11.17.04.07-.1.99-1.26 1.3-2.44l.5-2.04c.25.5.98.93 1.76.93 2.3 0 3.87-2.19 3.87-5.11C10 2.06 8.2 0 5.45 0z"/></svg>