<svg xmlns="http://www.w3.org/2000/svg" width="14" height="13" viewBox="0 0 14 13"><path fill="gray" d="M1.27 4.69l-.6-.8 1.87-1.7c.85-.75 1.49-1.14 1.9-1.17 1-.1 1.61.6 1.84 2.08.26 1.64.43 2.64.52 3 .29 1.33.6 2 .95 2 .27 0 .67-.43 1.2-1.3.55-.86.84-1.51.87-1.97.07-.74-.21-1.11-.87-1.11-.3 0-.62.07-.94.2.63-2.09 1.83-3.1 3.62-3.05 1.32.04 1.95.91 1.88 2.61-.07 1.28-.94 3.02-2.62 5.24-1.75 2.31-3.23 3.47-4.43 3.47-.75 0-1.38-.7-1.9-2.12L3.52 6.19c-.38-1.41-.8-2.12-1.24-2.12-.09 0-.42.2-1 .62z"/></svg>